<svg width="552" height="241" viewBox="0 0 552 241" fill="none" xmlns="http://www.w3.org/2000/svg">
<path d="M1.12 199.2L21.28 94.4C33.8667 93.3333 44.2133 92.8 52.32 92.8C60.4267 92.8 67.0933 93.1733 72.32 93.92C77.5467 94.56 81.92 95.7867 85.44 97.6C92.48 101.013 96 107.413 96 116.8C96 122.24 93.6533 127.253 88.96 131.84C84.5867 136 80 138.56 75.2 139.52C80.32 140.373 84.6933 142.72 88.32 146.56C92.16 150.613 94.08 155.787 94.08 162.08C94.08 174.24 89.5467 183.893 80.48 191.04C71.4133 198.08 57.9733 201.6 40.16 201.6C27.8933 201.6 14.88 200.8 1.12 199.2ZM36.64 189.92C37.6 190.027 38.1867 190.08 38.4 190.08H39.84C48.5867 190.08 54.8267 187.2 58.56 181.44C61.3333 176.96 62.72 170.613 62.72 162.4C62.72 158.027 61.28 154.667 58.4 152.32C55.6267 149.973 51.04 148.693 44.64 148.48L36.64 189.92ZM68.96 116.96C68.96 108.107 64.6933 103.68 56.16 103.68H54.72C54.2933 103.68 53.76 103.733 53.12 103.84L46.72 137.6H48.32C62.08 137.28 68.96 130.4 68.96 116.96ZM155.955 193.28C150.835 199.893 141.928 203.2 129.235 203.2C122.622 203.2 116.915 201.227 112.115 197.28C107.315 193.227 104.915 188.32 104.915 182.56C104.915 179.36 105.075 176.96 105.395 175.36L116.115 118.4L148.595 115.2L136.915 176.96C136.488 179.307 136.275 181.173 136.275 182.56C136.275 188.747 138.142 191.84 141.875 191.84C146.035 191.84 149.608 189.013 152.595 183.36C153.555 181.547 154.248 179.467 154.675 177.12L166.035 118.4L197.555 115.2L185.715 177.6C185.395 179.2 185.235 180.853 185.235 182.56C185.235 184.267 185.715 186.08 186.675 188C187.635 189.813 189.662 190.933 192.755 191.36C192.115 193.92 190.675 196.053 188.435 197.76C183.742 201.387 178.835 203.2 173.715 203.2C168.702 203.2 164.702 202.293 161.715 200.48C158.728 198.667 156.808 196.267 155.955 193.28ZM256.238 155.04C260.078 148.213 261.998 141.333 261.998 134.4C261.998 129.813 260.344 127.52 257.038 127.52C254.478 127.52 251.864 129.707 249.198 134.08C246.424 138.453 244.611 143.467 243.758 149.12L235.438 200L202.317 203.2L218.638 118.4L245.038 115.2L242.158 131.36C247.384 120.587 255.864 115.2 267.598 115.2C273.784 115.2 278.531 116.8 281.838 120C285.251 123.2 286.958 128.107 286.958 134.72C286.958 141.227 284.771 146.56 280.398 150.72C276.131 154.88 270.318 156.96 262.958 156.96C259.758 156.96 257.518 156.32 256.238 155.04ZM300.955 133.12C304.582 128 309.115 123.733 314.555 120.32C320.102 116.907 326.235 115.2 332.955 115.2C339.675 115.2 344.635 116.267 347.835 118.4L379.195 115.2L368.315 176.64C364.582 197.547 358.768 212.107 350.875 220.32C343.302 228.107 332.155 232 317.435 232C306.235 232 297.435 230.24 291.035 226.72C284.635 223.2 281.435 218.507 281.435 212.64C281.435 208.267 283.088 204.8 286.395 202.24C289.702 199.787 293.915 198.56 299.035 198.56C303.515 198.56 307.462 199.573 310.875 201.6C312.902 202.667 314.395 203.947 315.355 205.44C312.902 207.573 311.675 210.4 311.675 213.92C311.675 218.507 313.808 220.8 318.075 220.8C325.222 220.8 330.822 212.373 334.875 195.52C336.048 190.933 337.115 186.347 338.075 181.76C333.275 187.627 325.435 190.56 314.555 190.56C306.982 190.56 301.008 188.747 296.635 185.12C292.262 181.493 290.075 175.413 290.075 166.88C290.075 161.547 290.982 155.893 292.795 149.92C294.608 143.84 297.328 138.24 300.955 133.12ZM321.755 167.36C321.755 174.613 323.622 178.24 327.355 178.24C329.915 178.24 332.422 176.853 334.875 174.08C336.795 171.84 338.128 169.067 338.875 165.76L347.035 124.64C346.502 124.533 345.968 124.373 345.435 124.16C344.368 123.733 343.142 123.52 341.755 123.52C335.248 123.52 330.075 128.853 326.235 139.52C323.248 147.84 321.755 157.12 321.755 167.36ZM450.176 172.96C452.843 174.773 454.176 177.707 454.176 181.76C454.176 185.707 453.163 188.96 451.136 191.52C449.11 194.08 446.443 196.213 443.136 197.92C436.31 201.44 429.216 203.2 421.856 203.2C414.496 203.2 408.63 202.4 404.256 200.8C399.99 199.2 396.416 196.907 393.536 193.92C387.883 188.267 385.056 180.267 385.056 169.92C385.056 153.813 389.43 140.853 398.176 131.04C407.563 120.48 420.416 115.2 436.736 115.2C446.87 115.2 454.443 117.333 459.456 121.6C463.19 124.8 465.056 129.013 465.056 134.24C465.056 153.013 448.843 162.4 416.416 162.4C415.99 165.173 415.776 167.733 415.776 170.08C415.776 174.987 416.843 178.4 418.976 180.32C421.216 182.133 424.363 183.04 428.416 183.04C432.47 183.04 436.63 182.133 440.896 180.32C445.27 178.4 448.363 175.947 450.176 172.96ZM417.536 155.52C425.11 155.52 431.083 153.173 435.456 148.48C439.83 144 442.016 138.187 442.016 131.04C442.016 128.587 441.536 126.72 440.576 125.44C439.723 124.053 438.39 123.36 436.576 123.36C434.763 123.36 433.056 123.733 431.456 124.48C429.963 125.12 428.416 126.613 426.816 128.96C422.87 134.293 419.776 143.147 417.536 155.52ZM520.613 155.04C524.453 148.213 526.373 141.333 526.373 134.4C526.373 129.813 524.719 127.52 521.413 127.52C518.853 127.52 516.239 129.707 513.573 134.08C510.799 138.453 508.986 143.467 508.133 149.12L499.813 200L466.692 203.2L483.013 118.4L509.413 115.2L506.533 131.36C511.759 120.587 520.239 115.2 531.973 115.2C538.159 115.2 542.906 116.8 546.213 120C549.626 123.2 551.333 128.107 551.333 134.72C551.333 141.227 549.146 146.56 544.773 150.72C540.506 154.88 534.693 156.96 527.333 156.96C524.133 156.96 521.893 156.32 520.613 155.04Z" fill="white"/>
<path d="M145.672 96.888C144.963 96.888 144.405 96.6853 144 96.28C143.595 95.976 143.595 95.7227 144 95.52C146.229 95.1147 148.155 94.304 149.776 93.088C151.397 91.7707 152.715 90.1493 153.728 88.224C155.856 84.6773 157.933 81.1307 159.96 77.584C161.987 73.936 163.963 70.288 165.888 66.64L180.48 39.736C182.811 35.5813 184.837 31.5787 186.56 27.728C188.384 23.8773 189.803 21.0907 190.816 19.368C191.525 18.0507 192.741 16.8853 194.464 15.872C196.288 14.7573 198.061 13.896 199.784 13.288C199.176 13.288 198.568 13.288 197.96 13.288C197.352 13.1867 196.693 13.136 195.984 13.136C192.843 13.136 189.397 13.3387 185.648 13.744C182 14.048 178.403 14.5547 174.856 15.264C171.411 15.9733 168.371 16.936 165.736 18.152C163.101 19.368 161.328 20.8373 160.416 22.56C160.011 23.472 159.656 24.384 159.352 25.296C159.048 26.208 158.896 27.12 158.896 28.032C158.896 30.3627 159.707 32.0347 161.328 33.048C161.429 33.048 161.48 33.1493 161.48 33.352C161.48 33.5547 161.277 33.7573 160.872 33.96C160.568 34.1627 160.264 34.2133 159.96 34.112C159.048 33.6053 157.933 32.3893 156.616 30.464C155.299 28.4373 154.488 26.7653 154.184 25.448C153.88 24.232 153.728 23.1173 153.728 22.104C153.728 19.4693 154.589 17.4427 156.312 16.024C158.035 14.504 160.213 13.44 162.848 12.832C165.483 12.1227 168.168 11.7173 170.904 11.616C173.741 11.4133 176.224 11.312 178.352 11.312C181.595 11.312 185.445 11.312 189.904 11.312C194.363 11.2107 198.467 11.16 202.216 11.16C203.128 11.16 204.141 11.16 205.256 11.16C206.371 11.0587 207.536 11.008 208.752 11.008C211.488 11.008 214.325 11.16 217.264 11.464C220.203 11.768 222.888 12.4267 225.32 13.44C227.752 14.4533 229.627 16.024 230.944 18.152C232.261 20.3813 232.92 22.8133 232.92 25.448C232.92 27.9813 232.413 30.5147 231.4 33.048C230.387 35.5813 229.171 37.76 227.752 39.584C226.84 40.6987 225.776 41.8133 224.56 42.928C223.344 44.0427 221.976 45.1067 220.456 46.12C218.936 47.1333 217.264 48.096 215.44 49.008C213.717 49.8187 211.64 50.4773 209.208 50.984C209.107 50.984 209.005 51.136 208.904 51.44C208.904 51.744 209.005 51.896 209.208 51.896C209.715 51.9973 210.576 52.1493 211.792 52.352C213.109 52.4533 214.275 52.6053 215.288 52.808C218.835 53.5173 221.773 55.0373 224.104 57.368C226.536 59.5973 227.752 62.6373 227.752 66.488C227.752 70.8453 226.587 74.848 224.256 78.496C222.027 82.144 219.139 85.2853 215.592 87.92C212.045 90.4533 208.347 92.4293 204.496 93.848C199.632 95.672 194.059 96.584 187.776 96.584C184.027 96.584 180.125 96.2293 176.072 95.52C172.019 94.8107 168.32 93.5947 164.976 91.872C164.267 91.4667 163.557 91.1627 162.848 90.96C162.139 90.656 161.379 90.504 160.568 90.504C159.149 90.504 157.629 90.9093 156.008 91.72C154.995 92.1253 153.677 92.8853 152.056 94C150.435 95.1147 148.611 96.0267 146.584 96.736C146.381 96.8373 146.077 96.888 145.672 96.888ZM182.912 94.456C185.547 94.456 188.181 94.2027 190.816 93.696C193.451 93.088 195.832 92.3787 197.96 91.568C201.709 90.1493 205.155 88.1733 208.296 85.64C211.437 83.0053 213.971 79.9147 215.896 76.368C217.923 72.72 218.936 68.6667 218.936 64.208C218.936 61.2693 218.176 59.04 216.656 57.52C215.136 55.8987 213.211 54.784 210.88 54.176C208.549 53.568 206.117 53.264 203.584 53.264C201.659 53.264 199.835 53.3653 198.112 53.568C196.389 53.7707 194.819 54.024 193.4 54.328C190.563 54.8347 188.029 55.392 185.8 56C185.395 55.7973 185.445 55.4427 185.952 54.936C186.459 54.328 187.117 53.6693 187.928 52.96C188.84 52.2507 189.549 51.6933 190.056 51.288C190.259 51.0853 190.664 50.7813 191.272 50.376C191.981 49.8693 192.539 49.616 192.944 49.616C197.909 49.616 202.317 49.312 206.168 48.704C210.12 48.096 213.515 46.6267 216.352 44.296C219.189 41.864 221.52 38.1147 223.344 33.048C224.256 30.4133 224.712 27.8293 224.712 25.296C224.712 22.3573 224.003 19.824 222.584 17.696C221.165 15.4667 218.885 14.1493 215.744 13.744C215.339 13.6427 214.883 13.592 214.376 13.592C213.869 13.592 213.363 13.592 212.856 13.592C210.931 13.592 208.803 13.8453 206.472 14.352C204.243 14.8587 202.571 15.8213 201.456 17.24C198.923 20.584 196.491 24.384 194.16 28.64C191.829 32.7947 189.6 37.0507 187.472 41.408C185.344 45.664 183.317 49.6667 181.392 53.416C179.061 57.976 176.68 62.5867 174.248 67.248C171.816 71.9093 169.435 76.6213 167.104 81.384C166.496 82.6 166.192 83.7653 166.192 84.88C166.192 86.9067 167.459 88.8827 169.992 90.808C171.715 92.1253 173.691 93.088 175.92 93.696C178.251 94.2027 180.581 94.456 182.912 94.456ZM243.032 94.456C242.018 94.456 241.157 94.2533 240.448 93.848C239.738 93.4427 239.384 92.6827 239.384 91.568C239.384 90.1493 239.738 88.4773 240.448 86.552C241.258 84.6267 242.12 82.7013 243.032 80.776C243.944 78.8507 244.704 77.28 245.312 76.064C246.528 73.7333 247.693 71.4027 248.808 69.072C249.922 66.7413 250.885 64.7653 251.696 63.144C252.506 61.624 252.912 60.6107 252.912 60.104C252.912 59.2933 252.304 59.2933 251.088 60.104C249.973 60.9147 248.909 61.7253 247.896 62.536C245.666 64.664 243.336 67.1973 240.904 70.136C238.472 72.9733 236.597 75.2533 235.28 76.976C234.976 77.3813 234.722 77.584 234.52 77.584C234.317 77.584 234.216 77.3307 234.216 76.824C234.216 76.0133 234.469 75.2533 234.976 74.544C236.394 72.5173 238.066 70.288 239.992 67.856C241.917 65.424 243.893 63.0933 245.92 60.864C247.845 58.8373 249.821 56.8613 251.848 54.936C253.874 53.0107 256.458 52.048 259.6 52.048C261.728 52.048 262.792 52.8587 262.792 54.48C262.792 55.8987 262.184 57.52 260.968 59.344C260.258 60.4587 259.144 62.3333 257.624 64.968C256.104 67.6027 254.533 70.4907 252.912 73.632C251.392 76.672 250.074 79.5093 248.96 82.144C247.845 84.7787 247.288 86.704 247.288 87.92C247.288 89.3387 247.997 90.048 249.416 90.048C250.53 90.048 251.898 89.4907 253.52 88.376C255.141 87.16 256.813 85.7413 258.536 84.12C261.677 81.08 264.514 77.7867 267.048 74.24C269.682 70.592 271.912 67.096 273.736 63.752C275.661 60.408 277.181 57.672 278.296 55.544C278.498 55.1387 278.701 54.6827 278.904 54.176C279.208 53.568 279.664 53.2133 280.272 53.112C280.88 53.0107 282.197 52.96 284.224 52.96C286.25 52.96 288.125 52.5547 289.848 51.744H290.152C290.456 51.744 290.608 51.896 290.608 52.2C290.608 53.0107 289.949 53.6187 288.632 54.024C287.416 54.4293 285.997 55.6453 284.376 57.672C282.856 59.6987 281.336 62.1813 279.816 65.12C278.296 67.9573 276.928 70.896 275.712 73.936C274.496 76.976 273.584 79.7627 272.976 82.296C272.368 84.8293 272.216 86.704 272.52 87.92C272.925 89.3387 273.634 90.048 274.648 90.048C275.965 90.048 277.789 89.2373 280.12 87.616C282.552 85.9947 285.034 84.0693 287.568 81.84C290.101 79.5093 292.178 77.3813 293.8 75.456C294.509 74.6453 295.168 73.8347 295.776 73.024C296.384 72.2133 296.789 71.7067 296.992 71.504C297.093 71.6053 297.194 71.808 297.296 72.112C297.397 72.3147 297.448 72.5173 297.448 72.72C297.346 73.4293 297.093 74.1387 296.688 74.848C296.282 75.456 295.826 76.0133 295.32 76.52C293.394 79.0533 291.064 81.7387 288.328 84.576C285.693 87.312 282.805 89.6427 279.664 91.568C276.624 93.4933 273.482 94.456 270.24 94.456C269.226 94.456 268.061 94.2027 266.744 93.696C265.528 93.1893 264.92 92.0747 264.92 90.352C264.92 89.0347 265.274 87.2613 265.984 85.032C266.693 82.7013 267.453 80.4213 268.264 78.192C269.176 75.8613 269.936 74.1387 270.544 73.024C269.226 74.9493 267.605 77.128 265.68 79.56C263.856 81.8907 261.981 83.968 260.056 85.792C257.522 88.224 254.786 90.3013 251.848 92.024C249.01 93.6453 246.072 94.456 243.032 94.456ZM304.223 94.304C301.183 94.304 299.106 93.5947 297.991 92.176C296.877 90.656 296.319 88.832 296.319 86.704C296.319 83.8667 296.927 80.8267 298.143 77.584C299.461 74.3413 300.525 71.808 301.335 69.984C300.018 71.4027 298.751 72.7707 297.535 74.088C296.319 75.4053 295.458 76.368 294.951 76.976C294.647 77.3813 294.394 77.584 294.191 77.584C293.989 77.584 293.887 77.3307 293.887 76.824C293.887 76.0133 294.141 75.2533 294.647 74.544C296.066 72.72 297.687 70.7947 299.511 68.768C301.335 66.7413 303.109 64.6133 304.831 62.384C306.858 58.6347 309.087 54.2773 311.519 49.312C314.053 44.2453 316.637 39.0773 319.271 33.808C322.007 28.4373 324.642 23.5227 327.175 19.064C329.81 14.504 332.141 10.856 334.167 8.12C335.89 7.41066 337.511 6.49866 339.031 5.384C340.653 4.26933 342.223 3.25599 343.743 2.34399C345.365 1.33066 347.037 0.823995 348.759 0.823995C349.874 0.823995 350.685 1.12799 351.191 1.73599C351.799 2.344 352.205 3.05333 352.407 3.86399C352.509 4.16799 352.559 4.72533 352.559 5.536C352.559 7.86666 351.749 10.704 350.127 14.048C348.607 17.392 346.783 20.6853 344.655 23.928C342.629 27.0693 340.855 29.6533 339.335 31.68C335.282 37.3547 331.127 42.5227 326.871 47.184C322.615 51.744 318.765 55.5947 315.319 58.736C311.975 61.776 309.543 64.0053 308.023 65.424C307.314 66.7413 306.453 68.5147 305.439 70.744C304.527 72.872 303.717 75.152 303.007 77.584C302.298 79.9147 301.943 82.0933 301.943 84.12C301.943 85.8427 302.349 87.312 303.159 88.528C303.97 89.6427 305.338 90.2 307.263 90.2C307.567 90.2 307.871 90.2 308.175 90.2C308.479 90.2 308.834 90.1493 309.239 90.048C310.962 89.744 312.837 88.7813 314.863 87.16C316.89 85.5387 318.917 83.664 320.943 81.536C322.97 79.408 324.794 77.3813 326.415 75.456C327.125 74.6453 327.783 73.8853 328.391 73.176C328.999 72.3653 329.405 71.808 329.607 71.504C330.317 72.2133 330.266 73.1253 329.455 74.24C328.746 75.2533 328.138 76.1147 327.631 76.824C326.922 77.736 325.909 79.0027 324.591 80.624C323.274 82.144 321.754 83.816 320.031 85.64C318.106 87.5653 315.725 89.4907 312.887 91.416C310.05 93.3413 307.162 94.304 304.223 94.304ZM310.607 59.344C313.749 56.7093 317.701 52.96 322.463 48.096C327.327 43.1307 332.09 37.152 336.751 30.16C337.258 29.3493 338.069 27.9813 339.183 26.056C340.399 24.1307 341.615 21.952 342.831 19.52C344.149 16.9867 345.263 14.5547 346.175 12.224C347.087 9.79199 347.543 7.71466 347.543 5.99199C347.543 4.37066 347.087 3.56 346.175 3.56C345.061 3.56 343.591 4.52266 341.767 6.44799C339.639 8.67733 337.207 11.9707 334.471 16.328C331.837 20.584 329.05 25.3467 326.111 30.616C323.173 35.8853 320.335 41.0533 317.599 46.12C314.965 51.1867 312.634 55.5947 310.607 59.344ZM336.731 94.304C333.691 94.304 331.614 93.5947 330.499 92.176C329.385 90.656 328.827 88.832 328.827 86.704C328.827 83.8667 329.435 80.8267 330.651 77.584C331.969 74.3413 333.033 71.808 333.843 69.984C332.526 71.4027 331.259 72.7707 330.043 74.088C328.827 75.4053 327.966 76.368 327.459 76.976C327.155 77.3813 326.902 77.584 326.699 77.584C326.497 77.584 326.395 77.3307 326.395 76.824C326.395 76.0133 326.649 75.2533 327.155 74.544C328.574 72.72 330.195 70.7947 332.019 68.768C333.843 66.7413 335.617 64.6133 337.339 62.384C339.366 58.6347 341.595 54.2773 344.027 49.312C346.561 44.2453 349.145 39.0773 351.779 33.808C354.515 28.4373 357.15 23.5227 359.683 19.064C362.318 14.504 364.649 10.856 366.675 8.12C368.398 7.41066 370.019 6.49866 371.539 5.384C373.161 4.26933 374.731 3.25599 376.251 2.34399C377.873 1.33066 379.545 0.823995 381.267 0.823995C382.382 0.823995 383.193 1.12799 383.699 1.73599C384.307 2.344 384.713 3.05333 384.915 3.86399C385.017 4.16799 385.067 4.72533 385.067 5.536C385.067 7.86666 384.257 10.704 382.635 14.048C381.115 17.392 379.291 20.6853 377.163 23.928C375.137 27.0693 373.363 29.6533 371.843 31.68C367.79 37.3547 363.635 42.5227 359.379 47.184C355.123 51.744 351.273 55.5947 347.827 58.736C344.483 61.776 342.051 64.0053 340.531 65.424C339.822 66.7413 338.961 68.5147 337.947 70.744C337.035 72.872 336.225 75.152 335.515 77.584C334.806 79.9147 334.451 82.0933 334.451 84.12C334.451 85.8427 334.857 87.312 335.667 88.528C336.478 89.6427 337.846 90.2 339.771 90.2C340.075 90.2 340.379 90.2 340.683 90.2C340.987 90.2 341.342 90.1493 341.747 90.048C343.47 89.744 345.345 88.7813 347.371 87.16C349.398 85.5387 351.425 83.664 353.451 81.536C355.478 79.408 357.302 77.3813 358.923 75.456C359.633 74.6453 360.291 73.8853 360.899 73.176C361.507 72.3653 361.913 71.808 362.115 71.504C362.825 72.2133 362.774 73.1253 361.963 74.24C361.254 75.2533 360.646 76.1147 360.139 76.824C359.43 77.736 358.417 79.0027 357.099 80.624C355.782 82.144 354.262 83.816 352.539 85.64C350.614 87.5653 348.233 89.4907 345.395 91.416C342.558 93.3413 339.67 94.304 336.731 94.304ZM343.115 59.344C346.257 56.7093 350.209 52.96 354.971 48.096C359.835 43.1307 364.598 37.152 369.259 30.16C369.766 29.3493 370.577 27.9813 371.691 26.056C372.907 24.1307 374.123 21.952 375.339 19.52C376.657 16.9867 377.771 14.5547 378.683 12.224C379.595 9.79199 380.051 7.71466 380.051 5.99199C380.051 4.37066 379.595 3.56 378.683 3.56C377.569 3.56 376.099 4.52266 374.275 6.44799C372.147 8.67733 369.715 11.9707 366.979 16.328C364.345 20.584 361.558 25.3467 358.619 30.616C355.681 35.8853 352.843 41.0533 350.107 46.12C347.473 51.1867 345.142 55.5947 343.115 59.344ZM343.551 147.2C339.7 147.2 336.002 146.288 332.455 144.464C328.807 142.741 326.122 140.056 324.399 136.408C323.791 135.091 323.386 133.672 323.183 132.152C322.98 130.733 322.879 129.315 322.879 127.896V126.224C322.879 125.413 322.98 124.653 323.183 123.944C323.386 123.336 323.892 123.032 324.703 123.032C324.906 123.032 325.007 123.133 325.007 123.336C325.007 123.944 324.956 124.552 324.855 125.16C324.754 125.768 324.703 126.427 324.703 127.136C324.703 131.797 326.223 135.344 329.263 137.776C332.202 140.208 335.9 141.424 340.359 141.424C342.183 141.424 344.058 141.221 345.983 140.816C347.908 140.411 349.732 139.853 351.455 139.144C357.839 136.408 363.362 132.507 368.023 127.44C372.786 122.475 376.94 116.851 380.487 110.568C384.034 104.285 387.226 97.9013 390.063 91.416C391.684 87.5653 393.103 83.816 394.319 80.168C395.636 76.52 396.802 73.2267 397.815 70.288C396.802 71.7067 395.484 73.4293 393.863 75.456C392.242 77.4827 390.62 79.4587 388.999 81.384C387.378 83.208 385.959 84.6773 384.743 85.792C382.21 88.224 379.474 90.3013 376.535 92.024C373.698 93.6453 370.759 94.456 367.719 94.456C366.706 94.456 365.844 94.2533 365.135 93.848C364.426 93.4427 364.071 92.6827 364.071 91.568C364.071 90.1493 364.426 88.4773 365.135 86.552C365.946 84.6267 366.807 82.7013 367.719 80.776C368.631 78.8507 369.391 77.28 369.999 76.064C371.215 73.7333 372.38 71.4027 373.495 69.072C374.61 66.7413 375.572 64.7653 376.383 63.144C377.194 61.624 377.599 60.6107 377.599 60.104C377.599 59.2933 376.991 59.2933 375.775 60.104C374.66 60.9147 373.596 61.7253 372.583 62.536C370.354 64.664 368.023 67.1973 365.591 70.136C363.159 72.9733 361.284 75.2533 359.967 76.976C359.663 77.3813 359.41 77.584 359.207 77.584C359.004 77.584 358.903 77.3307 358.903 76.824C358.903 76.0133 359.156 75.2533 359.663 74.544C361.082 72.5173 362.754 70.288 364.679 67.856C366.604 65.424 368.58 63.0933 370.607 60.864C372.532 58.8373 374.508 56.8613 376.535 54.936C378.562 53.0107 381.146 52.048 384.287 52.048C386.415 52.048 387.479 52.8587 387.479 54.48C387.479 55.8987 386.871 57.52 385.655 59.344C384.946 60.4587 383.831 62.3333 382.311 64.968C380.791 67.6027 379.22 70.4907 377.599 73.632C376.079 76.672 374.762 79.5093 373.647 82.144C372.532 84.7787 371.975 86.704 371.975 87.92C371.975 89.3387 372.684 90.048 374.103 90.048C375.218 90.048 376.586 89.4907 378.207 88.376C379.828 87.16 381.5 85.7413 383.223 84.12C386.162 81.2827 388.847 78.1413 391.279 74.696C393.812 71.2507 395.991 67.9573 397.815 64.816C398.119 64.3093 398.626 63.3973 399.335 62.08C400.146 60.7627 400.956 59.496 401.767 58.28C402.679 57.064 403.388 56.3547 403.895 56.152C404.402 55.9493 405.415 55.392 406.935 54.48C408.455 53.568 409.975 52.96 411.495 52.656C412.914 52.352 413.978 52.2 414.687 52.2C415.802 52.2 416.359 52.504 416.359 53.112C416.359 53.9227 415.903 54.328 414.991 54.328C413.876 54.328 412.863 54.632 411.951 55.24C411.039 55.7467 410.33 56.4053 409.823 57.216C408.911 58.5333 407.594 60.9147 405.871 64.36C404.25 67.8053 402.426 71.808 400.399 76.368C398.474 80.8267 396.548 85.3867 394.623 90.048C392.698 94.608 390.924 98.8133 389.303 102.664C386.871 108.44 384.084 114.064 380.943 119.536C377.802 125.109 374.103 130.075 369.847 134.432C365.692 138.891 360.727 142.387 354.951 144.92C351.506 146.44 347.706 147.2 343.551 147.2Z" fill="#D07026"/>
</svg>
